<?xml version="1.0" encoding="utf-8"?>
<!-- Generator: Adobe Illustrator 24.0.1, SVG Export Plug-In . SVG Version: 6.00 Build 0)  -->
<svg version="1.1" id="Layer_1" xmlns="http://www.w3.org/2000/svg" xmlns:xlink="http://www.w3.org/1999/xlink" x="0px" y="0px"
	 viewBox="0 0 24 24" style="enable-background:new 0 0 24 24;" xml:space="preserve">
<title>icons</title>
<g>
	<path d="M13.5,19.2h-3c-0.4,0-0.8-0.3-0.8-0.8v-0.6c-2.7-0.9-4.5-3.5-4.5-6.4c0-3.7,3-6.7,6.7-6.7c0,0,0,0,0,0c1.8,0,3.5,0.7,4.8,2
		s2,3,2,4.8c0,2.9-1.8,5.4-4.5,6.4v0.6C14.2,18.9,13.9,19.2,13.5,19.2z M11.2,17.8h1.5v-0.5c0-0.3,0.2-0.6,0.6-0.7
		c2.3-0.6,3.9-2.7,3.9-5.1l0,0c0-1.4-0.5-2.7-1.5-3.7S13.4,6.2,12,6.2c0,0,0,0,0,0c-1.4,0-2.7,0.5-3.7,1.5c-1,1-1.5,2.3-1.5,3.7
		c0,2.4,1.6,4.5,3.9,5.1c0.3,0.1,0.6,0.4,0.6,0.7V17.8z"/>
</g>
<g>
	<path d="M12.5,23.2h-1c-0.4,0-0.8-0.3-0.8-0.8s0.3-0.8,0.8-0.8h1c0.4,0,0.8,0.3,0.8,0.8S12.9,23.2,12.5,23.2z"/>
</g>
<g>
	<path d="M13.5,21.2h-3c-0.4,0-0.8-0.3-0.8-0.8s0.3-0.8,0.8-0.8h3c0.4,0,0.8,0.3,0.8,0.8S13.9,21.2,13.5,21.2z"/>
</g>
<g>
	<path d="M12,4.2c-0.4,0-0.8-0.3-0.8-0.8v-2c0-0.4,0.3-0.8,0.8-0.8s0.8,0.3,0.8,0.8v2C12.8,3.9,12.4,4.2,12,4.2z"/>
</g>
<g>
	<path d="M22,12.2h-2c-0.4,0-0.8-0.3-0.8-0.8s0.3-0.8,0.8-0.8h2c0.4,0,0.8,0.3,0.8,0.8S22.4,12.2,22,12.2z"/>
</g>
<g>
	<path d="M4,12.2H2c-0.4,0-0.8-0.3-0.8-0.8s0.3-0.8,0.8-0.8h2c0.4,0,0.8,0.3,0.8,0.8S4.4,12.2,4,12.2z"/>
</g>
<g>
	<path d="M6.3,6.6C6.1,6.6,6,6.5,5.8,6.4L3.7,4.3C3.4,4,3.4,3.5,3.7,3.2s0.8-0.3,1.1,0l2.1,2.1c0.3,0.3,0.3,0.8,0,1.1
		C6.7,6.5,6.5,6.6,6.3,6.6z"/>
</g>
<g>
	<path d="M17.7,6.6c-0.2,0-0.4-0.1-0.5-0.2c-0.3-0.3-0.3-0.8,0-1.1l2.1-2.1c0.3-0.3,0.8-0.3,1.1,0s0.3,0.8,0,1.1l-2.1,2.1
		C18,6.5,17.9,6.6,17.7,6.6z"/>
</g>
</svg>
