<?xml version="1.0" encoding="UTF-8"?>
<svg width="30px" height="31px" viewBox="0 0 30 31" version="1.1" xmlns="http://www.w3.org/2000/svg" xmlns:xlink="http://www.w3.org/1999/xlink">
    <title>Group-6</title>
    <defs>
        <polygon id="path-1" points="0 0 29.444162 0 29.444162 30.2959932 0 30.2959932"></polygon>
        <polygon id="path-3" points="0 0 29.444162 0 29.444162 30.2959932 0 30.2959932"></polygon>
        <polygon id="path-5" points="0 0 29.444162 0 29.444162 30.2959932 0 30.2959932"></polygon>
    </defs>
    <g id="Page-1" stroke="none" stroke-width="1" fill="none" fill-rule="evenodd">
        <g id="xpollens--logo-color" transform="translate(0.060000, 0.383000)">
            <g id="Group-6" transform="translate(-0.000000, -0.000000)">
                <g id="Fill-2-Clipped">
                    <mask id="mask-2" fill="white">
                        <use xlink:href="#path-1"></use>
                    </mask>
                    <g id="path-1"></g>
                    <path d="M23.11,20.231 C25.847,19.556 28.617,21.224 29.294,23.963 C29.97,26.7 28.3,29.467 25.563,30.145 C22.827,30.823 20.058,29.154 19.381,26.416 C18.704,23.679 20.373,20.912 23.11,20.231" id="Fill-2" fill="#F9C623" fill-rule="nonzero" mask="url(#mask-2)"></path>
                </g>
                <g id="Fill-4-Clipped">
                    <mask id="mask-4" fill="white">
                        <use xlink:href="#path-3"></use>
                    </mask>
                    <g id="path-1"></g>
                    <path d="M23.569,0.094 C25.284,-0.33 27.016,0.718 27.441,2.431 C27.866,4.148 26.82,5.884 25.106,6.307 C23.392,6.732 21.661,5.683 21.234,3.969 C20.809,2.254 21.855,0.518 23.569,0.094" id="Fill-4" fill="#F9C623" fill-rule="nonzero" mask="url(#mask-4)"></path>
                </g>
                <g id="Fill-5-Clipped">
                    <mask id="mask-6" fill="white">
                        <use xlink:href="#path-5"></use>
                    </mask>
                    <g id="path-1"></g>
                    <path d="M2.37,12.26 C4.085,11.836 5.819,12.885 6.244,14.599 C6.667,16.315 5.623,18.052 3.908,18.474 C2.192,18.898 0.461,17.851 0.035,16.137 C-0.39,14.42 0.657,12.686 2.37,12.26" id="Fill-5" fill="#F9C623" fill-rule="nonzero" mask="url(#mask-6)"></path>
                </g>
                <path d="M13.542,10.412 C16.277,9.734 19.047,11.404 19.723,14.14 C20.4,16.88 18.73,19.647 15.994,20.324 C13.257,21.003 10.488,19.332 9.81,16.595 C9.133,13.857 10.805,11.09 13.542,10.412" id="Fill-1" fill="#F9C623" fill-rule="nonzero"></path>
            </g>
        </g>
    </g>
</svg>