<?xml version="1.0" encoding="utf-8"?>
<!-- Generator: Adobe Illustrator 24.0.1, SVG Export Plug-In . SVG Version: 6.00 Build 0)  -->
<svg version="1.2" baseProfile="tiny" id="Layer_1" xmlns="http://www.w3.org/2000/svg" xmlns:xlink="http://www.w3.org/1999/xlink"
	 x="0px" y="0px" viewBox="0 0 330 100" width="330" height="100" xml:space="preserve">
<path fill="#681F7A" d="M126.7,46.5c-0.5,2.8-1,6.8-2.9,10.2c-1,0.5-2.3-1.4-4.4,0.9c2.7,8.3-11.8,14.8-12.9,1.4
	C102.7,47.9,126.4,21.2,126.7,46.5z M82.3,47.6c-0.7,2.3-0.9,5.3-2.9,8.3c-2.3,1.2-6.6,0.2-3.6,6.8c-16,13.4-20.7-8.5-7.4-22.6
	C72.6,36.8,84.9,32.2,82.3,47.6z M153.5,40.2c0.9,0.9,5.9-30.1,15-28c2.7,6-6.6,23.7-15,29.5C153.5,41.3,153.1,41.4,153.5,40.2z
	 M181.6,40.2c0.9,0.9,5.9-30.1,15-28c2.7,6-6.6,23.7-15,29.5C181.5,41.3,181.2,41.4,181.6,40.2z M208.4,48.7
	c10.8-28.8,31.7,2.1,0.4,1.1l-0.5-0.5L208.4,48.7z M325.2,49.4l-1.1-0.3c-3.6,4.3-6.6,13.9-15.4,12.3c0-9.1-5.2-17.2-7.6-26.9
	c-1.4-2,4.6-5.6-1.2-7.5c-17.5,2.3-16,31-32.8,39.8c-8.7-0.6,14.9-33.2-3.4-35.9c-6.5-0.5-12.3,4.8-16.8,10.5l-0.1-0.1
	c0-2,2.1-4.9,1.7-8.4c-10.7-7.6-7.2,12-15.5,23.6c-4.1,9.4-28.1,18-25.5-2l0.5-0.4c48.6,6.7,14.6-53.8-7.9-4.1
	c-5.5,12.8-26.9,30.8-20.1-1.4c10.9-7.9,24.4-19.5,23.8-35.7C191.9-15,172.7,36.6,172,49.8c-5.3,11.6-26,31.7-20.6-0.5
	c9.3-8.1,29.4-22.5,22.8-40.2c-10.6-13.8-23,12.1-26.2,23.6c-3.9,10-2.4,28.2-17.8,28.7l-0.1-0.7c18.3-33.5-22.2-44-32.4-6.4
	c-2.5,4.1-5.8,7.9-11.9,7.1l-0.2-0.4c9.1-13.5,5.5-42.9-18.9-24.7l-0.2-0.1c0.2-0.7,0.6-1.6,0.5-3.2c-1.1-1.6-4.6-2.8-7.2-0.7
	C55.9,49.8,36.2,95.5,35,39.9C47.1,22.9,62.3,7.6,51.8,1c-3.1,8.1-8.9,18.5-16.9,30c4.1-61.6-49.3-7.2-19.5-5.5
	C10.5,18.4,20.5,0.9,24,8.4c2.4,8.4,0.9,29,2.1,34.3C19.2,54.2,4.2,62.1,2.5,76.3c6-4.6,13.3-13,24.1-25.9
	c0.2,16.9,11.5,32,24.6,13.8c-2.1,10.7-6.6,22.5-6.3,34.1c1.1,0.3,4.2,1.7,6.8-0.3c2.3-9.3,3.2-19.6,6.4-29.8l0.5-0.1
	c6.7,6.7,17.4,3.8,24.6-3.1c4.7,1.3,10.7-0.1,15-5.4c0.4,13.9,16.8,16.6,29.1,5.5c5.4,1.4,11.8-0.7,15.7-6.5
	c-1.5,16.2,17.7,19.3,28.1-0.3c-1.8,16.2,17.4,19.9,27.9,0.2c0.6,15.8,24,18.9,34.1,3.7c-2.6,3-1.5,15.1,6.5,6.6
	c2.7-11.1,5.4-30.9,21.2-31.7c5,2.6-5,20.6-3.7,29.9c14.4,20.3,26.8-23.7,37-32.9c0.9,7,5,13.6,6.6,21.6c-1.2,1.5-5.3,2.4-1.4,6.9
	c0.7,4.2-11.4,7.5-10.6-5.4l-0.6-0.6c-8.5-1.1-4.9,17.9,8.7,15.3c3.8-0.3,7.3-3.1,10.5-6.4c8.4,1.1,17.1-6,18.8-15.2L325.2,49.4z"/>
</svg>
