<?xml version="1.0" encoding="utf-8"?>
<!-- Generator: Adobe Illustrator 24.0.1, SVG Export Plug-In . SVG Version: 6.00 Build 0)  -->
<svg version="1.1" id="Layer_1" xmlns="http://www.w3.org/2000/svg" xmlns:xlink="http://www.w3.org/1999/xlink" x="0px" y="0px"
	 viewBox="0 0 317.5 137.4" style="enable-background:new 0 0 317.5 137.4;" xml:space="preserve">
<style type="text/css">
	.st0{fill:#135C97;}
	.st1{fill:#0086C6;}
	.st2{fill:#FFFFFF;}
	.st3{fill:#FEFEFE;}
	.st4{fill:#085493;}
	.st5{fill:#095593;}
	.st6{fill:#075392;}
</style>
<g>
	<g>
		<path class="st0" d="M132.6,51c0.5,15.9-1.6,31.5-6.8,46.5c-5.8,17.1-17,29.1-35.1,33.4c-8.6,1.6-16,1.2-20.7,0.5
			c-16.7-1.8-30.1-9.7-40.7-22.5c-4.1-4.9-5.4-10.9-6.6-16.9c0-1.7,0-3.3,0-5c1.8-4.5,1.1-9.4,2.9-14c8.3-20.4,23.1-34.9,41.1-46.7
			c7.8-5.1,16.3-9,25.4-11.4c20.4-5.3,39.8,9.5,40.1,30.6C132.2,47.4,131.8,49.2,132.6,51z"/>
		<path class="st1" d="M22.8,75.1c1.2-0.4,1-1.6,1.3-2.5C34.4,37.1,57.1,14,93.1,4.2c0.6-0.2,1.1-0.6,1.6-0.9c3.7,0,7.3,0,11,0
			c20.5,8.4,28.4,22.5,26.9,47.8c-1.4-5.9-1.7-11.9-4.1-17.7c-6.1-14.8-24.1-21-37.9-16.6c-14.3,4.6-26.7,12.2-38,22
			c-11.5,10-20.4,21.6-26.1,35.8c-1.6,4.1-0.4,9-3.7,12.6C22.8,83.1,22.8,79.1,22.8,75.1z"/>
		<path class="st2" d="M312.6,68.1c-4.8,12.2-9.6,24.3-14.4,36.5c-1.7,4.3-4.3,7-9.3,6.6c-1.6-0.1-2.5-0.5-2.5-2.3
			c0.1-1.5,0-2.7,2.2-3c4.7-0.7,6.6-4.7,4.6-9.5c-3.4-8.5-7.1-16.8-10.4-25.3c-0.5-1.2-2.8-3.3-0.3-4c2.1-0.6,5.4-1.8,6.7,2
			c2,6,4.1,11.9,6.2,17.9c0.4,1.2,0.9,2.5,1.7,4.6c2.2-6.7,4.7-12.4,6-18.5c1.2-5.8,4.3-7.1,9.5-5.9
			C312.6,67.4,312.6,67.8,312.6,68.1z"/>
		<path class="st2" d="M140.6,82.1c0-4.3,0.1-8.6,0-13c0-2,0.4-3.3,2.7-3c6.8,0.8,14-2.1,20.3,2.6c1.2,0.9,1.8-0.2,2.5-0.7
			c2.8-1.9,5.9-2,9.1-1.9c4.7,0.1,7.7,2.5,7.9,7.2c0.3,7.8,0.1,15.6,0.2,23.4c0,3-2,2.4-3.8,2.5c-2.2,0.2-2.9-0.7-2.8-2.9
			c0.1-6.5-0.1-13,0.1-19.4c0.1-4.1-1.6-5.6-5.6-5.7c-4.1-0.1-6.3,1.4-6.3,5.7c0,6.3,0,12.6,0,18.9c0,2.1-0.1,3.4-2.9,3.4
			c-2.6,0-3.5-0.9-3.4-3.5c0.2-6.3-0.1-12.6,0.1-18.9c0.1-4.1-1.8-5.6-5.7-5.7c-4,0-6.3,1.2-6.2,5.7c0.2,6.3-0.1,12.6,0.1,18.9
			c0.1,2.6-0.8,3.4-3.4,3.4c-2.6,0-3-1.1-3-3.3C140.7,91.4,140.6,86.8,140.6,82.1z"/>
		<path class="st2" d="M247.7,85.5c0,3.6-0.1,7.3,0,10.9c0.1,2.1-0.7,3-2.9,2.9c-2.1,0-3.5-0.2-3.4-2.9c0.1-6.3,0.1-12.6,0-18.9
			c-0.1-5.1-1.6-6.3-7.8-6.3c-5.7,0-7,1.2-7,6.4c0,6-0.1,11.9,0,17.9c0,2.2,0,3.8-3,3.8c-2.6-0.1-3.4-0.9-3.4-3.5
			c0.1-8.8,0.1-17.6,0-26.4c0-2.6,0.8-3.5,3.4-3.4c5,0.2,10-0.1,14.9,0.1c6.4,0.3,9,3,9,9.3C247.7,78.8,247.7,82.2,247.7,85.5z"/>
		<path class="st3" d="M97.6,89.1c-2.4-3.8-5.4-6.8-9.9-8c-4-1.1-7.8-2.7-11.8-3.7c-7.8-1.9-10.9-7.7-13-14.5c-1-1.5-1-2.9,0-4.4
			c4.8-19.6,28.9-19.3,38-9.5c1.1,1.2,1.6,2.4,2.3,3.7c1.6,3,1.8,5.9-1.5,7.7c-3.1,1.8-6.5,1.5-8.3-1.8c-1.8-3.3-4.6-4.4-7.8-5.2
			c-4.2-1.1-8.7,1.1-10.1,5.1c-1.3,3.7,0.4,7.3,4.9,9c4.6,1.8,9.5,3.1,14.2,4.7c5.5,1.9,10,5.3,13,10.3c7.9,13.2-0.8,29.5-17.5,32.4
			c-8.6,1.5-16.6-0.3-23.9-5.1c-3.9-2.6-5.1-7.2-7.3-11c-1-0.8-0.9-1.7,0-2.5c4.6-5.8,9.1-5.5,12.4,1c1.8,3.5,4.5,6,8.5,6.7
			c3,0.1,6,0,9,0.1c4-0.7,6.8-2.8,8.1-6.8C98.4,94.7,97.4,91.8,97.6,89.1z"/>
		<path class="st4" d="M88.7,104c-3,1.3-6,1.3-9-0.1C82.7,102.5,85.7,102.4,88.7,104z"/>
		<path class="st5" d="M97.6,89.1c1.3,2.9,1.9,5.7-0.9,8.2C97.1,94.5,95.8,91.6,97.6,89.1z"/>
		<path class="st4" d="M62.9,58.4c0,1.5,0,2.9,0,4.4c-0.4,0.3-0.4,2.1-1,0.6c-0.6-1.7-0.6-4,0-5.7C62.5,56.3,62.5,58.2,62.9,58.4z"
			/>
		<ellipse class="st6" cx="84.2" cy="116.5" rx="4.9" ry="0.3"/>
		<path class="st4" d="M58.8,96.2c0,0.8,0,1.7,0,2.5c-1.6,1.1-1.2-0.5-1.1-0.9C57.9,97.3,56.8,95.6,58.8,96.2z"/>
		<path class="st2" d="M160.5,75.2c0,7.2,0,14.5,0,21.7c-0.2,0-0.3,0-0.5,0c0-7.2,0-14.5,0-21.7C160.1,75.2,160.3,75.2,160.5,75.2z"
			/>
		<g>
			<path class="st2" d="M215.5,75.4c-0.1-6.5-3.9-9.1-13.1-9.2c-10-0.1-14.2,2.4-14.4,9c-0.2,5.1-0.1,10.3,0,15.4
				c0.1,5,2.5,8,7.7,8.5c4-1.6,8-1.6,12,0c5.9-1.1,7.7-3.1,7.8-8.7C215.5,85.3,215.6,80.4,215.5,75.4z M209,83c0,1.3,0,2.6,0,4
				c0,7-6.3,10.4-12.5,6.9c-1.7-0.9-2.1-2.3-2.1-4.1c0-4.5,0.1-8.9-0.1-13.4c-0.1-2.6,1.1-4,3.4-4.7c7.2-2.3,11.3,0.5,11.2,7.9
				C209,80.7,209,81.9,209,83z"/>
			<path class="st2" d="M195.7,99c4,1.2,8,1.3,12,0C203.6,99.2,199.7,98.6,195.7,99z"/>
			<path class="st2" d="M195.7,99c4-0.4,8,0.2,12,0C203.7,97.4,199.7,97.5,195.7,99z"/>
		</g>
		<g>
			<path class="st2" d="M278.8,86.7c-1.9-0.2-5.2-0.1-5.2,3.8c0,3.3-2.7,3.9-5.2,4.2c-3.1,0.4-6.5,0.6-8.8-2.2
				c-2.2-2.8-0.7-7,2.8-8.1c4.8-1.5,9.5-2.8,14.3-4.3c1.5-0.5,3.1-0.6,3.4-2.9c0.8-6.3-2.5-10-10-10.9c-10.4-1.2-16.9,1.6-17.5,7.7
				c0,0.5,0,1,0,1.5c0,5-0.1,10,0,14.9c0.1,5.6,2,7.6,8,8.6c4-1.7,8-1.6,12-0.1c4.7-0.5,7.3-3,7.4-7.7C280,89.7,281,86.9,278.8,86.7
				z M262,71.8c1.4-0.4,2.9-0.5,4.5-0.7c1.2,0.2,2.6,0.2,3.8,0.7c1.6,0.5,3.3,1.3,3.2,3.3c-0.1,1.7-2,1.5-3.1,1.9
				c-2.1,0.8-4.4,1.8-6.6,2c-1.6,0.1-3.9,3.2-4.8-0.2C258.3,76,258.4,72.9,262,71.8z"/>
			<path class="st2" d="M260.6,99.1c4,1.3,8,1.1,12-0.1C268.6,98.7,264.6,99.2,260.6,99.1z"/>
			<path class="st2" d="M260.6,99.1c4,0.1,8-0.4,12-0.1C268.6,97.5,264.6,97.4,260.6,99.1z"/>
		</g>
	</g>
</g>
</svg>
