<svg height="27" viewBox="0 0 27 27" width="27" xmlns="http://www.w3.org/2000/svg" xmlns:xlink="http://www.w3.org/1999/xlink"><filter id="a" color-interpolation-filters="auto"><feColorMatrix in="SourceGraphic" type="matrix" values="0 0 0 0 1.000000 0 0 0 0 1.000000 0 0 0 0 1.000000 0 0 0 1.000000 0"/></filter><g fill="none" fill-rule="evenodd" filter="url(#a)" transform="translate(-1.149091 -1)"><path d="m.07272727-.07272727h28.00000003v28.14545457h-28.00000003z" fill-rule="nonzero" opacity="0" transform="matrix(0 1 -1 0 28.072727 -.072727)"/><g transform="translate(2.345455 2.333333)"><path d="m8.97190621 16.3333333c.21682642 0 .40227006-.0760082.55633094-.2280248l2.79877255-2.8038607 2.8158904 2.8038607c.148355.1463863.3252397.2195795.5306542.2195795.1997085 0 .3737402-.0717856.5220951-.2153568.148355-.1435712.2225324-.3223314.2225324-.5362806 0-.0957141-.0171179-.1900207-.0513536-.2829197-.0342358-.092899-.0912953-.1731299-.1711788-.2406928l-2.8073314-2.8123061 2.7987725-2.79541542c.0741775-.07319315.1269576-.15483167.1583403-.24491555.0313828-.09008387.0470742-.18298288.0470742-.278697s-.0185444-.18861312-.0556331-.278697-.0898688-.16890727-.1583403-.23647018-.1469285-.12245777-.2353708-.16468459c-.0884424-.04222682-.1840172-.06334023-.2867244-.06334023-.1027073 0-.203988.01829829-.3038423.05489486-.0998543.03659658-.1868701.09430657-.2610476.17312996l-2.7645368 2.77007925-2.77309574-2.78696998c-.07417746-.07319315-.15976683-.12808801-.25676812-.16468459-.0970013-.03659658-.19400259-.05489486-.29100388-.05489486-.10270725 0-.19970854.02111341-.29100387.06334022-.09129534.04222682-.17117875.09712169-.23965025.1646846s-.12267811.1463863-.16261981.23647018c-.03994171.09008388-.05991257.18298288-.05991257.278697s.01711788.18861312.05135363.278697.08844235.1717224.16261981.24491555l2.7987726 2.80386078-2.82444941 2.8376421c-.07988342.0788234-.13979598.1632771-.17973769.253361-.03994171.0900838-.05705958.1829828-.05135362.278697 0 .0957141.01997085.1872055.05991256.2744743.03994171.0872687.09414831.1646846.16261981.2322475s.14978141.1210502.24392972.1604619.19257609.0591175.29528334.0591175z" fill="#000" fill-rule="nonzero"/><path d="m24.6272727 12.25c0 6.7662609-5.5122261 12.25-12.3136363 12.25-6.80141031 0-12.3136364-5.4837391-12.3136364-12.25 0-6.76626087 5.51222609-12.25 12.3136364-12.25 6.8014102 0 12.3136363 5.48373913 12.3136363 12.25z" stroke="#000" stroke-linecap="round" stroke-linejoin="round" stroke-width="1.055455"/></g></g></svg>