<svg height="27" viewBox="0 0 26 27" width="26" xmlns="http://www.w3.org/2000/svg" xmlns:xlink="http://www.w3.org/1999/xlink"><filter id="a" color-interpolation-filters="auto"><feColorMatrix in="SourceGraphic" type="matrix" values="0 0 0 0 1.000000 0 0 0 0 1.000000 0 0 0 0 1.000000 0 0 0 1.000000 0"/></filter><g fill="none" fill-rule="evenodd" filter="url(#a)" transform="translate(-1.574545 -1)"><path d="m.07272727-.07272727h28.00000003v28.14545457h-28.00000003z" fill-rule="nonzero" opacity="0" transform="matrix(0 1 -1 0 28.072727 -.072727)"/><g stroke="#000" stroke-linejoin="round" stroke-width="1.055455" transform="translate(2.345455 2.333333)"><path d="m24.6272727 12.25c0 6.7651957-5.5122261 12.25-12.3136363 12.25-6.80141031 0-12.3136364-5.4848043-12.3136364-12.25 0-6.76626087 5.51222609-12.25 12.3136364-12.25 6.8014102 0 12.3136363 5.48373913 12.3136363 12.25z" stroke-linecap="round"/><path d="m16.4241423 9.58695652h-2.5044865v-1.08865217c0-.55817392.3726213-.69026087.6338846-.69026087h1.5076173v-2.45639131l-2.5162648-.0063913c-2.4605857 0-2.8374901 1.8311087-2.8374901 3.00178261v1.23991304h-2.14150197v2.13043478h2.14150197v7.4565217h3.212253v-7.4565217h2.2432233z"/></g></g></svg>