<svg height="26" viewBox="0 0 26 26" width="26" xmlns="http://www.w3.org/2000/svg" xmlns:xlink="http://www.w3.org/1999/xlink"><filter id="a" color-interpolation-filters="auto"><feColorMatrix in="SourceGraphic" type="matrix" values="0 0 0 0 1.000000 0 0 0 0 1.000000 0 0 0 0 1.000000 0 0 0 1.000000 0"/></filter><mask id="b" fill="#fff"><path d="m0 25.6666667h25.8v-25.6666667h-25.8z" fill="#fff" fill-rule="evenodd"/></mask><g fill="none" fill-rule="evenodd" filter="url(#a)" transform="translate(-1 -1)"><path d="m.07272727-.07272727h28.00000003v28.14545457h-28.00000003z" fill-rule="nonzero" opacity="0" transform="matrix(0 1 -1 0 28.072727 -.072727)"/><g stroke="#fff" stroke-linejoin="round" stroke-width="1.055455" transform="translate(1.172727 1.166667)"><path d="m25.2625 12.8333333c0 6.7920417-5.5341 12.2986111-12.3625 12.2986111s-12.3625-5.5065694-12.3625-12.2986111c0-6.79311108 5.5341-12.29861108 12.3625-12.29861108s12.3625 5.5055 12.3625 12.29861108z" stroke-linecap="round"/><path d="m16.125 13.3680556c-.2967 0-.5375.2384861-.5375.5347222v3.7430555h-3.225s.033325-6.9278611 0-7.4861111h3.225v.8929861s.491275-.8052916 1.835025-.8052916c1.66625 0 2.464975 1.1967083 2.464975 3.5248889v3.8735277h-3.225v-3.7430555c0-.2962361-.241875-.5347222-.5375-.5347222z"/><path d="m8.0625 17.6458333h2.15v-7.4861111h-2.15z" mask="url(#b)"/><path d="m10.2125 6.95138889c0 .59033333-.480525 1.06944444-1.075 1.06944444s-1.075-.47911111-1.075-1.06944444.480525-1.06944445 1.075-1.06944445 1.075.47911112 1.075 1.06944445z" mask="url(#b)"/></g></g></svg>