<svg height="27" viewBox="0 0 27 27" width="27" xmlns="http://www.w3.org/2000/svg" xmlns:xlink="http://www.w3.org/1999/xlink"><filter id="a" color-interpolation-filters="auto"><feColorMatrix in="SourceGraphic" type="matrix" values="0 0 0 0 1.000000 0 0 0 0 1.000000 0 0 0 0 1.000000 0 0 0 1.000000 0"/></filter><g fill="none" fill-rule="evenodd" filter="url(#a)" transform="translate(-1.149091 -1)"><path d="m.07272727-.07272727h28.00000003v28.14545457h-28.00000003z" fill-rule="nonzero" opacity="0" transform="matrix(0 1 -1 0 28.072727 -.072727)"/><g stroke="#ffffff" stroke-linejoin="round" stroke-width="1.055455" transform="translate(2.345455 2.333333)"><path d="m19.2735178 7.30046739s-1.4465846.15552174-2.0879644.28334783c-.5150313-.54645652-1.2463542-.88626087-2.0569127-.88626087-1.5568719 0-2.8192873 1.25482608-2.8192873 2.80365217 0 .21836957.025698.4346087.072811.63806518-2.3417324-.1150434-4.4189893-1.23245648-5.80775333-2.92934779-.24306048.4165-.38225811.89691305-.38225811 1.41034783 0 .97360869.49789921 1.83004346 1.25384941 2.33389126-.46149367-.0159782-.89621858-.1416739-1.27633518-.3515217v.0372826c0 1.357087.97117115 2.4915435 2.26035534 2.7471957-.41330988.112913-.84803478.1278261-1.27205217.049.35870158 1.1131521 1.39840079 1.9237826 2.63190592 1.9472174-1.20459486.9405869-2.70150474 1.3315217-4.1727166 1.1600217 1.2474249.7957174 2.72934427 1.2612174 4.32048024 1.2612174 5.18350558 0 8.01885418-4.2736522 8.01885418-7.97741306 0-.1225-.0021415-.24286956-.008566-.36323913.550366-.39626087.9476146-1.59995652 1.3255897-2.16345652z"/><path d="m24.6272727 12.25c0 6.7662609-5.5122261 12.25-12.3136363 12.25-6.80141031 0-12.3136364-5.4837391-12.3136364-12.25 0-6.76626087 5.51222609-12.25 12.3136364-12.25 6.8014102 0 12.3136363 5.48373913 12.3136363 12.25z" stroke-linecap="round"/></g></g></svg>