<svg xmlns="http://www.w3.org/2000/svg" version="1.1" viewBox="0 0 96 30" xml:space="preserve">
  <defs/>
  <path fill="#fff" d="M12.8 4.4c.9-.2 1.8.3 2 1.2.2.9-.3 1.8-1.2 2-.9.2-1.8-.3-2-1.2s.3-1.8 1.2-2m-.3 10.4c1.4-.3 2.9.5 3.2 1.9.3 1.4-.5 2.9-1.9 3.2-1.4.3-2.9-.5-3.2-1.9-.3-1.4.5-2.8 1.9-3.2M7.6 9.7c1.4-.3 2.9.5 3.2 1.9.3 1.4-.5 2.9-1.9 3.2-1.4.3-2.9-.5-3.2-1.9-.4-1.4.5-2.8 1.9-3.2m-5.8 1c.9-.2 1.8.3 2 1.2.2.9-.3 1.8-1.2 2-.9.2-1.8-.3-2-1.2-.2-.9.3-1.8 1.2-2M31.6 7.2l-3.9 6.3 3.9 6.3h-2.9l-2.6-4.1-2.4 4.1h-2.9l3.9-6.3-3.9-6.3h2.9l2.6 4.1 2.4-4.1h2.9zm4.2 4.1c.7-1.1 1.7-1.7 3.1-1.7s2.5.5 3.4 1.4c.9 1 1.3 2.2 1.3 3.7s-.4 2.7-1.3 3.7-2 1.4-3.3 1.4c-1.3 0-2.4-.6-3.1-1.8v6.4h-2.5V9.8h2.5v1.5m4.4 5.6c.5-.5.8-1.3.8-2.2 0-.9-.3-1.6-.8-2.2-.5-.5-1.1-.8-1.8-.8s-1.3.3-1.8.8-.8 1.3-.8 2.2.3 1.6.8 2.2c.5.5 1.1.8 1.8.8s1.3-.3 1.8-.8m5.6 1.6c-1-1-1.5-2.2-1.5-3.7s.5-2.8 1.5-3.7c1-.9 2.2-1.4 3.7-1.4s2.7.5 3.7 1.4c1 .9 1.5 2.2 1.5 3.7s-.5 2.8-1.5 3.7c-1 1-2.2 1.4-3.7 1.4s-2.7-.5-3.7-1.4m3.6-.8c.7 0 1.3-.3 1.8-.8s.8-1.3.8-2.2-.3-1.7-.8-2.2c-.5-.5-1.1-.8-1.8-.8s-1.3.3-1.8.8-.7 1.3-.7 2.2.2 1.7.7 2.2 1.1.8 1.8.8m6.7-11.3h2.5v13.3h-2.5V6.4zm4.7 0h2.5v13.3h-2.5V6.4zm8.9 13.5c-1.5 0-2.6-.5-3.5-1.4-.9-.9-1.4-2.2-1.4-3.7s.5-2.8 1.4-3.7c.9-.9 2.1-1.4 3.5-1.4s2.6.5 3.6 1.4c.9.9 1.4 2.1 1.4 3.6 0 .3 0 .7-.1 1h-7.3c.1.6.3 1.2.7 1.6.4.4 1 .6 1.6.6.9 0 1.5-.3 1.9-1.1h2.7c-.3 1-.8 1.7-1.7 2.3-.7.5-1.6.8-2.8.8m1.6-7.5c-.4-.4-1-.6-1.6-.6-.6 0-1.2.2-1.6.6-.4.4-.7.9-.8 1.6h4.7c0-.7-.2-1.2-.7-1.6m7.4-2.6v1.5c.6-1.1 1.7-1.6 3.1-1.6 1.1 0 2.1.4 2.8 1.1.7.8 1.1 1.8 1.1 3.1v5.9h-2.5v-5.5c0-.8-.2-1.4-.6-1.8-.4-.4-.9-.6-1.6-.6-.7 0-1.2.2-1.6.6s-.6 1-.6 1.8v5.5h-2.5v-10h2.4m8.5 2.9c0-.9.4-1.6 1.1-2.2.7-.6 1.7-.9 2.9-.9s2.2.3 2.9.9c.7.6 1.1 1.4 1.2 2.4h-2.6c-.1-.8-.6-1.3-1.5-1.3-.5 0-.8.1-1.1.3-.3.2-.4.5-.4.8 0 .3.2.6.6.8.4.2.9.3 1.4.4.6.1 1.1.2 1.7.4.6.2 1 .4 1.4.9.4.4.6 1 .6 1.7 0 .9-.4 1.6-1.1 2.2-.8.6-1.7.8-2.9.8s-2.2-.3-2.9-.8c-.8-.6-1.2-1.4-1.3-2.4h2.6c.1.8.6 1.3 1.6 1.3.5 0 .8-.1 1.1-.3s.4-.7.4-1c0-.3-.2-.6-.6-.8-.4-.2-.9-.3-1.4-.5-.6-.1-1.1-.2-1.7-.4-.6-.1-1-.4-1.4-.8-.5-.3-.6-.9-.6-1.5" class="st0"/>
</svg>