<?xml version="1.0" encoding="utf-8"?>
<!-- Generator: Adobe Illustrator 25.4.1, SVG Export Plug-In . SVG Version: 6.00 Build 0)  -->
<svg version="1.1" id="Layer_1" xmlns="http://www.w3.org/2000/svg" xmlns:xlink="http://www.w3.org/1999/xlink" x="0px" y="0px"
	 viewBox="0 0 154 44" style="enable-background:new 0 0 154 44;" xml:space="preserve">
<style type="text/css">
	.st0{filter:url(#a);}
	.st1{fill-rule:evenodd;clip-rule:evenodd;fill:#FFFFFF;}
	.st2{fill-rule:evenodd;clip-rule:evenodd;fill:#FFFFFF;filter:url(#Adobe_OpacityMaskFilter);}
	.st3{mask:url(#b_00000017485949667264949620000000820802926629316028_);fill-rule:evenodd;clip-rule:evenodd;fill:#FFFFFF;}
	
		.st4{fill-rule:evenodd;clip-rule:evenodd;fill:#FFFFFF;filter:url(#Adobe_OpacityMaskFilter_00000059989162366421576230000003220548144523560126_);}
	.st5{mask:url(#c_00000057832698807423198210000013578112578385268609_);fill-rule:evenodd;clip-rule:evenodd;fill:#FFFFFF;}
	
		.st6{fill-rule:evenodd;clip-rule:evenodd;fill:#FFFFFF;filter:url(#Adobe_OpacityMaskFilter_00000101063563252363217330000000081985941258815122_);}
	.st7{mask:url(#c_00000175318222150619242010000016078761859334931647_);fill-rule:evenodd;clip-rule:evenodd;fill:#FFFFFF;}
	
		.st8{fill-rule:evenodd;clip-rule:evenodd;fill:#FFFFFF;filter:url(#Adobe_OpacityMaskFilter_00000121258532542188575880000011230389342160378259_);}
	.st9{mask:url(#c_00000075880143100131718360000012409730048979728002_);fill-rule:evenodd;clip-rule:evenodd;fill:#FFFFFF;}
	
		.st10{fill-rule:evenodd;clip-rule:evenodd;fill:#FFFFFF;filter:url(#Adobe_OpacityMaskFilter_00000131326717186168347080000010917640995706477718_);}
	.st11{mask:url(#c_00000076580190253732067530000013307592419207980700_);fill-rule:evenodd;clip-rule:evenodd;fill:#FFFFFF;}
	
		.st12{fill-rule:evenodd;clip-rule:evenodd;fill:#FFFFFF;filter:url(#Adobe_OpacityMaskFilter_00000075151102157314713320000009020938776162775432_);}
	.st13{mask:url(#c_00000116917660557978679120000014309733763341192363_);fill-rule:evenodd;clip-rule:evenodd;fill:#FFFFFF;}
	
		.st14{fill-rule:evenodd;clip-rule:evenodd;fill:#FFFFFF;filter:url(#Adobe_OpacityMaskFilter_00000092416420836126045220000007993540116325196175_);}
	.st15{mask:url(#c_00000145052131566749382300000009387651544867832502_);fill-rule:evenodd;clip-rule:evenodd;fill:#FFFFFF;}
	
		.st16{fill-rule:evenodd;clip-rule:evenodd;fill:#FFFFFF;filter:url(#Adobe_OpacityMaskFilter_00000004531869871854043870000010547806776979613340_);}
	.st17{mask:url(#c_00000116224078175760063750000003313072878013066155_);fill-rule:evenodd;clip-rule:evenodd;fill:#FFFFFF;}
	
		.st18{fill-rule:evenodd;clip-rule:evenodd;fill:#FFFFFF;filter:url(#Adobe_OpacityMaskFilter_00000080905311172815303590000007132522926911140258_);}
	.st19{mask:url(#c_00000063623972482061590490000013235314559849715621_);fill-rule:evenodd;clip-rule:evenodd;fill:#FFFFFF;}
	
		.st20{fill-rule:evenodd;clip-rule:evenodd;fill:#FFFFFF;filter:url(#Adobe_OpacityMaskFilter_00000049216655731291780140000005886995076691804329_);}
	.st21{mask:url(#c_00000002386590225428548830000016014025441903764666_);fill-rule:evenodd;clip-rule:evenodd;fill:#FFFFFF;}
	
		.st22{fill-rule:evenodd;clip-rule:evenodd;fill:#FFFFFF;filter:url(#Adobe_OpacityMaskFilter_00000181079908528382532440000008571104897369892514_);}
	.st23{mask:url(#c_00000170260632031097158640000015822154861947437728_);fill-rule:evenodd;clip-rule:evenodd;fill:#FFFFFF;}
	
		.st24{fill-rule:evenodd;clip-rule:evenodd;fill:#FFFFFF;filter:url(#Adobe_OpacityMaskFilter_00000000906173444017628680000000821358392951014569_);}
	.st25{mask:url(#c_00000160182589805184730870000014994486106209995395_);fill-rule:evenodd;clip-rule:evenodd;fill:#FFFFFF;}
	
		.st26{fill-rule:evenodd;clip-rule:evenodd;fill:#FFFFFF;filter:url(#Adobe_OpacityMaskFilter_00000060712439769341023140000017640516288040908672_);}
	.st27{mask:url(#c_00000128482313159535865800000006989529554939038385_);fill-rule:evenodd;clip-rule:evenodd;fill:#FFFFFF;}
	
		.st28{fill-rule:evenodd;clip-rule:evenodd;fill:#FFFFFF;filter:url(#Adobe_OpacityMaskFilter_00000176727946923874582650000004508849104595059595_);}
	.st29{mask:url(#c_00000065772651446370213570000010087799117079444099_);fill-rule:evenodd;clip-rule:evenodd;fill:#FFFFFF;}
	
		.st30{fill-rule:evenodd;clip-rule:evenodd;fill:#FFFFFF;filter:url(#Adobe_OpacityMaskFilter_00000141447676666707127720000011047639192528625295_);}
	.st31{mask:url(#c_00000142865492275000028920000000990603371345621948_);fill-rule:evenodd;clip-rule:evenodd;fill:#FFFFFF;}
	
		.st32{fill-rule:evenodd;clip-rule:evenodd;fill:#FFFFFF;filter:url(#Adobe_OpacityMaskFilter_00000121964226111586816130000011920372234128375971_);}
	.st33{mask:url(#c_00000111895275525763556370000006172784714171131062_);fill-rule:evenodd;clip-rule:evenodd;fill:#FFFFFF;}
	
		.st34{fill-rule:evenodd;clip-rule:evenodd;fill:#FFFFFF;filter:url(#Adobe_OpacityMaskFilter_00000095304941421265116810000002608898602468393096_);}
	.st35{mask:url(#c_00000012456439093987252400000001905494402595088280_);fill-rule:evenodd;clip-rule:evenodd;fill:#FFFFFF;}
	
		.st36{fill-rule:evenodd;clip-rule:evenodd;fill:#FFFFFF;filter:url(#Adobe_OpacityMaskFilter_00000000910809234553995240000000776738017217848711_);}
	.st37{mask:url(#c_00000022518813628851618350000005134194045287718558_);fill-rule:evenodd;clip-rule:evenodd;fill:#FFFFFF;}
	
		.st38{fill-rule:evenodd;clip-rule:evenodd;fill:#FFFFFF;filter:url(#Adobe_OpacityMaskFilter_00000042004700764258806930000009365012627711320710_);}
	.st39{mask:url(#c_00000100354500717404641550000015949023075922992777_);fill-rule:evenodd;clip-rule:evenodd;fill:#FFFFFF;}
</style>
<filter  color-interpolation-filters="auto" id="a">
	<feColorMatrix  in="SourceGraphic" type="matrix" values="0 0 0 0 1.000000 0 0 0 0 1.000000 0 0 0 0 1.000000 0 0 0 1.000000 0">
		</feColorMatrix>
</filter>
<g transform="translate(-4 -4)" class="st0">
	<g transform="translate(4.327177 4.32)">
		<g transform="translate(8.127468 8.565721)">
			<path class="st1" d="M3.2,0.1C5.5-0.4,7.8,1,8.4,3.2C9,5.5,7.6,7.8,5.3,8.4C3,9,0.7,7.6,0.1,5.3C-0.4,3,1,0.7,3.2,0.1"/>
			<path class="st1" d="M11.2,8.3c2.3-0.6,4.6,0.8,5.2,3.1c0.6,2.3-0.8,4.6-3.1,5.2c-2.3,0.6-4.6-0.8-5.2-3.1
				C7.6,11.2,9,8.9,11.2,8.3"/>
		</g>
		<g transform="translate(.000033)">
			<defs>
				<filter id="Adobe_OpacityMaskFilter" filterUnits="userSpaceOnUse" x="17.7" y="0" width="5.3" height="5.3">
					<feColorMatrix  type="matrix" values="1 0 0 0 0  0 1 0 0 0  0 0 1 0 0  0 0 0 1 0"/>
				</filter>
			</defs>
			
				<mask maskUnits="userSpaceOnUse" x="17.7" y="0" width="5.3" height="5.3" id="b_00000129891018761264376750000015717036636958064779_">
				<path class="st2" d="M-0.3-0.3H5V5h-5.3V-0.3z"/>
			</mask>
			
				<path style="mask:url(#b_00000129891018761264376750000015717036636958064779_);fill-rule:evenodd;clip-rule:evenodd;fill:#FFFFFF;" d="
				M19.8,0.1c1.4-0.4,2.9,0.5,3.2,2c0.4,1.4-0.5,2.9-2,3.2c-1.4,0.4-2.9-0.5-3.2-2C17.4,1.9,18.3,0.4,19.8,0.1"/>
			<path class="st1" d="M2,10.2c1.4-0.4,2.9,0.5,3.2,2c0.4,1.4-0.5,2.9-2,3.2c-1.4,0.4-2.9-0.5-3.2-2C-0.3,12,0.6,10.6,2,10.2"/>
		</g>
		<g>
			<path class="st1" d="M50.2,4.6l-6.3,10.1l6.3,10.1h-4.6l-4.2-6.7l-3.9,6.7h-4.6l6.4-10.1L32.9,4.6h4.6l4.2,6.7l3.9-6.7L50.2,4.6z
				"/>
			<path class="st1" d="M64.3,20.2c0.8-0.9,1.3-2,1.3-3.5s-0.4-2.6-1.3-3.5c-0.8-0.8-1.8-1.2-3-1.2c-1.1,0-2.1,0.4-3,1.3
				c-0.8,0.8-1.3,2-1.3,3.5c0,1.5,0.4,2.6,1.3,3.5c0.8,0.8,1.8,1.3,3,1.3C62.5,21.5,63.4,21.1,64.3,20.2 M57.1,11.2
				c1.1-1.8,2.8-2.7,5-2.7c2.2,0,4,0.8,5.5,2.3c1.4,1.5,2.2,3.5,2.2,6s-0.7,4.4-2.2,6c-1.4,1.5-3.2,2.3-5.4,2.3
				c-2.2,0-3.9-1-5.1-2.9v10.4H53V8.7h4.1V11.2z"/>
			<path class="st1" d="M79.2,21.6c1.1,0,2.1-0.4,3-1.3c0.8-0.8,1.2-2,1.2-3.6s-0.4-2.7-1.2-3.6c-0.8-0.8-1.8-1.2-3-1.2
				c-1.2,0-2.1,0.4-2.9,1.2c-0.8,0.8-1.2,2-1.2,3.6c0,1.5,0.4,2.7,1.2,3.6C77.1,21.2,78.1,21.6,79.2,21.6 M73.3,22.8
				c-1.6-1.5-2.4-3.5-2.4-6s0.8-4.5,2.4-6c1.6-1.5,3.6-2.3,5.9-2.3c2.4,0,4.3,0.8,5.9,2.3c1.6,1.5,2.4,3.5,2.4,6s-0.8,4.5-2.4,6
				c-1.6,1.5-3.6,2.3-5.9,2.3C76.9,25.1,74.9,24.3,73.3,22.8"/>
			<defs>
				
					<filter id="Adobe_OpacityMaskFilter_00000104703911685930823290000010569661206063583118_" filterUnits="userSpaceOnUse" x="90" y="3.3" width="4.1" height="21.5">
					<feColorMatrix  type="matrix" values="1 0 0 0 0  0 1 0 0 0  0 0 1 0 0  0 0 0 1 0"/>
				</filter>
			</defs>
			
				<mask maskUnits="userSpaceOnUse" x="90" y="3.3" width="4.1" height="21.5" id="c_00000052106470578278305500000010268071747191130261_">
				
					<path style="fill-rule:evenodd;clip-rule:evenodd;fill:#FFFFFF;filter:url(#Adobe_OpacityMaskFilter_00000104703911685930823290000010569661206063583118_);" d="
					M-0.3,42.8h153.4V-0.3H-0.3V42.8z"/>
			</mask>
			
				<path style="mask:url(#c_00000052106470578278305500000010268071747191130261_);fill-rule:evenodd;clip-rule:evenodd;fill:#FFFFFF;" d="
				M90,24.8h4.1V3.3H90V24.8z"/>
			<defs>
				
					<filter id="Adobe_OpacityMaskFilter_00000141434769627654936410000008189003723381585545_" filterUnits="userSpaceOnUse" x="97.6" y="3.3" width="4.1" height="21.5">
					<feColorMatrix  type="matrix" values="1 0 0 0 0  0 1 0 0 0  0 0 1 0 0  0 0 0 1 0"/>
				</filter>
			</defs>
			
				<mask maskUnits="userSpaceOnUse" x="97.6" y="3.3" width="4.1" height="21.5" id="c_00000012453494842296734070000004149379533652276874_">
				
					<path style="fill-rule:evenodd;clip-rule:evenodd;fill:#FFFFFF;filter:url(#Adobe_OpacityMaskFilter_00000141434769627654936410000008189003723381585545_);" d="
					M-0.3,42.8h153.4V-0.3H-0.3V42.8z"/>
			</mask>
			
				<path style="mask:url(#c_00000012453494842296734070000004149379533652276874_);fill-rule:evenodd;clip-rule:evenodd;fill:#FFFFFF;" d="
				M97.6,24.8h4.1V3.3h-4.1V24.8z"/>
			<defs>
				
					<filter id="Adobe_OpacityMaskFilter_00000064351838120347525790000014257989554522299532_" filterUnits="userSpaceOnUse" x="104" y="8.5" width="16.1" height="16.5">
					<feColorMatrix  type="matrix" values="1 0 0 0 0  0 1 0 0 0  0 0 1 0 0  0 0 0 1 0"/>
				</filter>
			</defs>
			
				<mask maskUnits="userSpaceOnUse" x="104" y="8.5" width="16.1" height="16.5" id="c_00000099632184778421685440000012382326743293051060_">
				
					<path style="fill-rule:evenodd;clip-rule:evenodd;fill:#FFFFFF;filter:url(#Adobe_OpacityMaskFilter_00000064351838120347525790000014257989554522299532_);" d="
					M-0.3,42.8h153.4V-0.3H-0.3V42.8z"/>
			</mask>
			
				<path style="mask:url(#c_00000099632184778421685440000012382326743293051060_);fill-rule:evenodd;clip-rule:evenodd;fill:#FFFFFF;" d="
				M114.6,12.9c-0.7-0.6-1.6-1-2.6-1c-1,0-1.9,0.3-2.6,1c-0.7,0.6-1.1,1.5-1.2,2.6h7.6C115.8,14.4,115.4,13.6,114.6,12.9
				 M111.9,25.1c-2.3,0-4.3-0.8-5.7-2.3c-1.5-1.5-2.2-3.5-2.2-6c0-2.5,0.7-4.5,2.2-6c1.5-1.5,3.4-2.2,5.8-2.2c2.4,0,4.3,0.7,5.8,2.2
				c1.5,1.5,2.3,3.4,2.3,5.9c0,0.6,0,1.1-0.1,1.6h-11.8c0.1,1,0.5,1.9,1.2,2.5c0.7,0.6,1.5,1,2.6,1c1.4,0,2.5-0.6,3.1-1.7h4.4
				c-0.5,1.5-1.4,2.8-2.7,3.7C115.5,24.6,113.8,25.1,111.9,25.1"/>
			<defs>
				
					<filter id="Adobe_OpacityMaskFilter_00000069387793624300491300000016181512072201015187_" filterUnits="userSpaceOnUse" x="122.4" y="8.5" width="15.4" height="16.3">
					<feColorMatrix  type="matrix" values="1 0 0 0 0  0 1 0 0 0  0 0 1 0 0  0 0 0 1 0"/>
				</filter>
			</defs>
			
				<mask maskUnits="userSpaceOnUse" x="122.4" y="8.5" width="15.4" height="16.3" id="c_00000117659757805632709700000002101086881238842498_">
				
					<path style="fill-rule:evenodd;clip-rule:evenodd;fill:#FFFFFF;filter:url(#Adobe_OpacityMaskFilter_00000069387793624300491300000016181512072201015187_);" d="
					M-0.3,42.8h153.4V-0.3H-0.3V42.8z"/>
			</mask>
			
				<path style="mask:url(#c_00000117659757805632709700000002101086881238842498_);fill-rule:evenodd;clip-rule:evenodd;fill:#FFFFFF;" d="
				M126.5,8.7v2.4c1-1.8,2.7-2.6,5-2.6c1.8,0,3.3,0.6,4.5,1.8c1.2,1.2,1.7,2.9,1.7,5v9.5h-4.1v-8.9c0-1.3-0.3-2.2-1-2.9
				c-0.6-0.7-1.5-1-2.6-1c-1.1,0-2,0.3-2.6,1c-0.6,0.7-1,1.6-1,2.9v8.9h-4.1V8.7L126.5,8.7z"/>
			<defs>
				
					<filter id="Adobe_OpacityMaskFilter_00000122704977780990766600000006324652334713771960_" filterUnits="userSpaceOnUse" x="140.2" y="8.5" width="13.3" height="16.5">
					<feColorMatrix  type="matrix" values="1 0 0 0 0  0 1 0 0 0  0 0 1 0 0  0 0 0 1 0"/>
				</filter>
			</defs>
			
				<mask maskUnits="userSpaceOnUse" x="140.2" y="8.5" width="13.3" height="16.5" id="c_00000036957911482657274380000003952574435590240916_">
				
					<path style="fill-rule:evenodd;clip-rule:evenodd;fill:#FFFFFF;filter:url(#Adobe_OpacityMaskFilter_00000122704977780990766600000006324652334713771960_);" d="
					M-0.3,42.8h153.4V-0.3H-0.3V42.8z"/>
			</mask>
			
				<path style="mask:url(#c_00000036957911482657274380000003952574435590240916_);fill-rule:evenodd;clip-rule:evenodd;fill:#FFFFFF;" d="
				M140.2,13.5c0-1.4,0.6-2.6,1.8-3.5c1.2-0.9,2.8-1.4,4.7-1.4c2,0,3.5,0.5,4.7,1.4c1.2,0.9,1.8,2.2,1.9,3.8h-4.2
				c-0.1-1.4-1-2-2.5-2c-0.8,0-1.4,0.2-1.8,0.5c-0.4,0.3-0.6,0.7-0.6,1.3c0,0.5,0.3,1,1,1.3c0.6,0.3,1.4,0.6,2.3,0.7
				c0.9,0.2,1.8,0.4,2.7,0.7c0.9,0.3,1.7,0.7,2.3,1.4c0.6,0.7,1,1.6,1,2.7c0,1.5-0.6,2.6-1.8,3.5c-1.2,0.9-2.8,1.4-4.7,1.4
				c-1.9,0-3.5-0.5-4.7-1.4c-1.2-0.9-1.9-2.2-2-3.9h4.2c0.2,1.4,1,2,2.6,2c0.8,0,1.4-0.2,1.8-0.5c0.5-0.3,0.7-0.8,0.7-1.3
				c0-0.6-0.3-1-1-1.3c-0.6-0.3-1.4-0.6-2.3-0.7c-0.9-0.2-1.8-0.4-2.7-0.6c-0.9-0.3-1.7-0.7-2.3-1.4
				C140.5,15.3,140.2,14.5,140.2,13.5"/>
			<defs>
				
					<filter id="Adobe_OpacityMaskFilter_00000007417460410322285720000010363119030308549007_" filterUnits="userSpaceOnUse" x="71.9" y="35.9" width="5" height="7.2">
					<feColorMatrix  type="matrix" values="1 0 0 0 0  0 1 0 0 0  0 0 1 0 0  0 0 0 1 0"/>
				</filter>
			</defs>
			
				<mask maskUnits="userSpaceOnUse" x="71.9" y="35.9" width="5" height="7.2" id="c_00000050644516656290657950000009962000699905495736_">
				
					<path style="fill-rule:evenodd;clip-rule:evenodd;fill:#FFFFFF;filter:url(#Adobe_OpacityMaskFilter_00000007417460410322285720000010363119030308549007_);" d="
					M-0.3,42.8h153.4V-0.3H-0.3V42.8z"/>
			</mask>
			
				<path style="mask:url(#c_00000050644516656290657950000009962000699905495736_);fill-rule:evenodd;clip-rule:evenodd;fill:#FFFFFF;" d="
				M74.4,39.2c0.9,0,1.3-0.4,1.3-1.2c0-0.7-0.4-1.2-1.3-1.2h-1.3v2.3H74.4z M74.4,40.1h-1.3V43h-1.2v-7.2h2.5c1.7,0,2.5,1,2.5,2.1
				C76.9,39,76.2,40.1,74.4,40.1z"/>
			<defs>
				
					<filter id="Adobe_OpacityMaskFilter_00000040546960716795699180000010030751168771718325_" filterUnits="userSpaceOnUse" x="77" y="35.9" width="6.5" height="7.2">
					<feColorMatrix  type="matrix" values="1 0 0 0 0  0 1 0 0 0  0 0 1 0 0  0 0 0 1 0"/>
				</filter>
			</defs>
			
				<mask maskUnits="userSpaceOnUse" x="77" y="35.9" width="6.5" height="7.2" id="c_00000043418135978501385440000006335545400883792018_">
				
					<path style="fill-rule:evenodd;clip-rule:evenodd;fill:#FFFFFF;filter:url(#Adobe_OpacityMaskFilter_00000040546960716795699180000010030751168771718325_);" d="
					M-0.3,42.8h153.4V-0.3H-0.3V42.8z"/>
			</mask>
			
				<path style="mask:url(#c_00000043418135978501385440000006335545400883792018_);fill-rule:evenodd;clip-rule:evenodd;fill:#FFFFFF;" d="
				M80.3,37.3l-1.2,3.3h2.3L80.3,37.3z M81.8,41.6h-3L78.3,43H77l2.6-7.2H81l2.6,7.2h-1.2L81.8,41.6z"/>
			<defs>
				
					<filter id="Adobe_OpacityMaskFilter_00000142861271216455713480000017159307199206304660_" filterUnits="userSpaceOnUse" x="83.4" y="35.9" width="5.9" height="7.2">
					<feColorMatrix  type="matrix" values="1 0 0 0 0  0 1 0 0 0  0 0 1 0 0  0 0 0 1 0"/>
				</filter>
			</defs>
			
				<mask maskUnits="userSpaceOnUse" x="83.4" y="35.9" width="5.9" height="7.2" id="c_00000154397905841547089830000004839426275778165428_">
				
					<path style="fill-rule:evenodd;clip-rule:evenodd;fill:#FFFFFF;filter:url(#Adobe_OpacityMaskFilter_00000142861271216455713480000017159307199206304660_);" d="
					M-0.3,42.8h153.4V-0.3H-0.3V42.8z"/>
			</mask>
			
				<path style="mask:url(#c_00000154397905841547089830000004839426275778165428_);fill-rule:evenodd;clip-rule:evenodd;fill:#FFFFFF;" d="
				M83.4,35.9h1.3l1.7,3.5l1.7-3.5h1.3L87,40.4V43h-1.2v-2.6L83.4,35.9z"/>
			<defs>
				
					<filter id="Adobe_OpacityMaskFilter_00000163781178886960108290000005955987330844084394_" filterUnits="userSpaceOnUse" x="90.3" y="35.9" width="7.5" height="7.2">
					<feColorMatrix  type="matrix" values="1 0 0 0 0  0 1 0 0 0  0 0 1 0 0  0 0 0 1 0"/>
				</filter>
			</defs>
			
				<mask maskUnits="userSpaceOnUse" x="90.3" y="35.9" width="7.5" height="7.2" id="c_00000143583435411038501460000007490182938314913923_">
				
					<path style="fill-rule:evenodd;clip-rule:evenodd;fill:#FFFFFF;filter:url(#Adobe_OpacityMaskFilter_00000163781178886960108290000005955987330844084394_);" d="
					M-0.3,42.8h153.4V-0.3H-0.3V42.8z"/>
			</mask>
			
				<path style="mask:url(#c_00000143583435411038501460000007490182938314913923_);fill-rule:evenodd;clip-rule:evenodd;fill:#FFFFFF;" d="
				M90.3,35.9h1.3l2.5,5.6l2.5-5.6h1.3V43h-1.2v-4.9L94.5,43h-0.8l-2.2-4.9V43h-1.2L90.3,35.9z"/>
			<defs>
				
					<filter id="Adobe_OpacityMaskFilter_00000034811262345190733220000008894960721572012696_" filterUnits="userSpaceOnUse" x="99.4" y="35.9" width="4" height="7.2">
					<feColorMatrix  type="matrix" values="1 0 0 0 0  0 1 0 0 0  0 0 1 0 0  0 0 0 1 0"/>
				</filter>
			</defs>
			
				<mask maskUnits="userSpaceOnUse" x="99.4" y="35.9" width="4" height="7.2" id="c_00000167361680850983915500000013167413130959343796_">
				
					<path style="fill-rule:evenodd;clip-rule:evenodd;fill:#FFFFFF;filter:url(#Adobe_OpacityMaskFilter_00000034811262345190733220000008894960721572012696_);" d="
					M-0.3,42.8h153.4V-0.3H-0.3V42.8z"/>
			</mask>
			
				<path style="mask:url(#c_00000167361680850983915500000013167413130959343796_);fill-rule:evenodd;clip-rule:evenodd;fill:#FFFFFF;" d="
				M103.3,36.8h-2.8v2.1h2.5v1h-2.5v2.2h2.8v1h-4v-7.2h4V36.8z"/>
			<defs>
				
					<filter id="Adobe_OpacityMaskFilter_00000015344892524708184940000007369078847207480511_" filterUnits="userSpaceOnUse" x="104.8" y="35.9" width="5.9" height="7.2">
					<feColorMatrix  type="matrix" values="1 0 0 0 0  0 1 0 0 0  0 0 1 0 0  0 0 0 1 0"/>
				</filter>
			</defs>
			
				<mask maskUnits="userSpaceOnUse" x="104.8" y="35.9" width="5.9" height="7.2" id="c_00000129176173286498987320000008593991770065309568_">
				
					<path style="fill-rule:evenodd;clip-rule:evenodd;fill:#FFFFFF;filter:url(#Adobe_OpacityMaskFilter_00000015344892524708184940000007369078847207480511_);" d="
					M-0.3,42.8h153.4V-0.3H-0.3V42.8z"/>
			</mask>
			
				<path style="mask:url(#c_00000129176173286498987320000008593991770065309568_);fill-rule:evenodd;clip-rule:evenodd;fill:#FFFFFF;" d="
				M110.7,35.9V43h-1.2l-3.5-5.3V43h-1.2v-7.2h1.2l3.5,5.3v-5.3L110.7,35.9z"/>
			<defs>
				
					<filter id="Adobe_OpacityMaskFilter_00000181065525053901370390000003885775005995422887_" filterUnits="userSpaceOnUse" x="111.8" y="35.9" width="5" height="7.2">
					<feColorMatrix  type="matrix" values="1 0 0 0 0  0 1 0 0 0  0 0 1 0 0  0 0 0 1 0"/>
				</filter>
			</defs>
			
				<mask maskUnits="userSpaceOnUse" x="111.8" y="35.9" width="5" height="7.2" id="c_00000011016609386256081500000006826590264603191973_">
				
					<path style="fill-rule:evenodd;clip-rule:evenodd;fill:#FFFFFF;filter:url(#Adobe_OpacityMaskFilter_00000181065525053901370390000003885775005995422887_);" d="
					M-0.3,42.8h153.4V-0.3H-0.3V42.8z"/>
			</mask>
			
				<path style="mask:url(#c_00000011016609386256081500000006826590264603191973_);fill-rule:evenodd;clip-rule:evenodd;fill:#FFFFFF;" d="
				M111.8,35.9h5v1h-1.9V43h-1.2v-6.2h-1.9V35.9z"/>
		</g>
		<defs>
			
				<filter id="Adobe_OpacityMaskFilter_00000087390127134278823880000016109211405321428373_" filterUnits="userSpaceOnUse" x="120.1" y="35.8" width="1.8" height="7.2">
				<feColorMatrix  type="matrix" values="1 0 0 0 0  0 1 0 0 0  0 0 1 0 0  0 0 0 1 0"/>
			</filter>
		</defs>
		
			<mask maskUnits="userSpaceOnUse" x="120.1" y="35.8" width="1.8" height="7.2" id="c_00000123427340715775658720000002778300956761925036_">
			
				<path style="fill-rule:evenodd;clip-rule:evenodd;fill:#FFFFFF;filter:url(#Adobe_OpacityMaskFilter_00000087390127134278823880000016109211405321428373_);" d="
				M-0.3,42.8h153.4V-0.3H-0.3V42.8z"/>
		</mask>
		
			<path style="mask:url(#c_00000123427340715775658720000002778300956761925036_);fill-rule:evenodd;clip-rule:evenodd;fill:#FFFFFF;" d="
			M120.1,43h1.8v-7.2h-1.8V43z"/>
		<defs>
			
				<filter id="Adobe_OpacityMaskFilter_00000002346885903536723780000014973893674662204322_" filterUnits="userSpaceOnUse" x="123.1" y="35.8" width="6.5" height="7.2">
				<feColorMatrix  type="matrix" values="1 0 0 0 0  0 1 0 0 0  0 0 1 0 0  0 0 0 1 0"/>
			</filter>
		</defs>
		
			<mask maskUnits="userSpaceOnUse" x="123.1" y="35.8" width="6.5" height="7.2" id="c_00000093141964108847679270000009794349104407645071_">
			
				<path style="fill-rule:evenodd;clip-rule:evenodd;fill:#FFFFFF;filter:url(#Adobe_OpacityMaskFilter_00000002346885903536723780000014973893674662204322_);" d="
				M-0.3,42.8h153.4V-0.3H-0.3V42.8z"/>
		</mask>
		
			<path style="mask:url(#c_00000093141964108847679270000009794349104407645071_);fill-rule:evenodd;clip-rule:evenodd;fill:#FFFFFF;" d="
			M129.6,35.8V43h-1.8l-2.9-4.5V43h-1.8v-7.2h1.8l2.9,4.5v-4.5H129.6z"/>
		<defs>
			
				<filter id="Adobe_OpacityMaskFilter_00000000940168129162058650000013780047207739378573_" filterUnits="userSpaceOnUse" x="130.7" y="35.7" width="5.5" height="7.4">
				<feColorMatrix  type="matrix" values="1 0 0 0 0  0 1 0 0 0  0 0 1 0 0  0 0 0 1 0"/>
			</filter>
		</defs>
		
			<mask maskUnits="userSpaceOnUse" x="130.7" y="35.7" width="5.5" height="7.4" id="c_00000080204801020578758450000003543588698700545442_">
			
				<path style="fill-rule:evenodd;clip-rule:evenodd;fill:#FFFFFF;filter:url(#Adobe_OpacityMaskFilter_00000000940168129162058650000013780047207739378573_);" d="
				M-0.3,42.8h153.4V-0.3H-0.3V42.8z"/>
		</mask>
		
			<path style="mask:url(#c_00000080204801020578758450000003543588698700545442_);fill-rule:evenodd;clip-rule:evenodd;fill:#FFFFFF;" d="
			M133.5,43.1c-1.6,0-2.8-0.8-2.8-2.2h1.9c0.1,0.6,0.4,0.8,0.9,0.8c0.5,0,0.8-0.3,0.8-0.7c0-1.3-3.6-0.6-3.6-3.2
			c0-1.4,1.1-2.1,2.6-2.1c1.6,0,2.6,0.8,2.7,2.2h-1.9c0-0.5-0.4-0.7-0.8-0.8c-0.4,0-0.7,0.2-0.7,0.7c0,1.3,3.6,0.7,3.6,3.1
			C136.1,42.1,135.2,43.1,133.5,43.1"/>
		<defs>
			
				<filter id="Adobe_OpacityMaskFilter_00000052087904000822419000000015774283287984063904_" filterUnits="userSpaceOnUse" x="137.2" y="35.8" width="1.8" height="7.2">
				<feColorMatrix  type="matrix" values="1 0 0 0 0  0 1 0 0 0  0 0 1 0 0  0 0 0 1 0"/>
			</filter>
		</defs>
		
			<mask maskUnits="userSpaceOnUse" x="137.2" y="35.8" width="1.8" height="7.2" id="c_00000040558651616873273070000014393512138371627426_">
			
				<path style="fill-rule:evenodd;clip-rule:evenodd;fill:#FFFFFF;filter:url(#Adobe_OpacityMaskFilter_00000052087904000822419000000015774283287984063904_);" d="
				M-0.3,42.8h153.4V-0.3H-0.3V42.8z"/>
		</mask>
		
			<path style="mask:url(#c_00000040558651616873273070000014393512138371627426_);fill-rule:evenodd;clip-rule:evenodd;fill:#FFFFFF;" d="
			M137.2,43h1.8v-7.2h-1.8V43z"/>
		<defs>
			
				<filter id="Adobe_OpacityMaskFilter_00000054254080779856047430000012249986159616833669_" filterUnits="userSpaceOnUse" x="140.3" y="35.8" width="6.5" height="7.2">
				<feColorMatrix  type="matrix" values="1 0 0 0 0  0 1 0 0 0  0 0 1 0 0  0 0 0 1 0"/>
			</filter>
		</defs>
		
			<mask maskUnits="userSpaceOnUse" x="140.3" y="35.8" width="6.5" height="7.2" id="c_00000093862307895022409540000010470062372672220831_">
			
				<path style="fill-rule:evenodd;clip-rule:evenodd;fill:#FFFFFF;filter:url(#Adobe_OpacityMaskFilter_00000054254080779856047430000012249986159616833669_);" d="
				M-0.3,42.8h153.4V-0.3H-0.3V42.8z"/>
		</mask>
		
			<path style="mask:url(#c_00000093862307895022409540000010470062372672220831_);fill-rule:evenodd;clip-rule:evenodd;fill:#FFFFFF;" d="
			M142.8,41.5c1.3,0,2.1-0.8,2.1-2.1s-0.8-2.1-2.1-2.1H142v4.2H142.8z M146.8,39.4c0,2.1-1.5,3.6-3.8,3.6h-2.7v-7.2h2.7
			C145.3,35.8,146.8,37.3,146.8,39.4z"/>
		<defs>
			
				<filter id="Adobe_OpacityMaskFilter_00000111876108378133746210000004171860734325055656_" filterUnits="userSpaceOnUse" x="147.7" y="35.8" width="4.4" height="7.2">
				<feColorMatrix  type="matrix" values="1 0 0 0 0  0 1 0 0 0  0 0 1 0 0  0 0 0 1 0"/>
			</filter>
		</defs>
		
			<mask maskUnits="userSpaceOnUse" x="147.7" y="35.8" width="4.4" height="7.2" id="c_00000005983635945169644840000006878012666264276656_">
			
				<path style="fill-rule:evenodd;clip-rule:evenodd;fill:#FFFFFF;filter:url(#Adobe_OpacityMaskFilter_00000111876108378133746210000004171860734325055656_);" d="
				M-0.3,42.8h153.4V-0.3H-0.3V42.8z"/>
		</mask>
		
			<path style="mask:url(#c_00000005983635945169644840000006878012666264276656_);fill-rule:evenodd;clip-rule:evenodd;fill:#FFFFFF;" d="
			M152.2,37.2h-2.7v1.5h2.4V40h-2.4v1.6h2.7V43h-4.4v-7.2h4.4V37.2z"/>
	</g>
</g>
</svg>
