<?xml version="1.0" encoding="utf-8"?>
<!-- Generator: Adobe Illustrator 24.0.1, SVG Export Plug-In . SVG Version: 6.00 Build 0)  -->
<svg version="1.1" id="Layer_1" xmlns="http://www.w3.org/2000/svg" xmlns:xlink="http://www.w3.org/1999/xlink" x="0px" y="0px"
	 viewBox="0 0 330 100" style="enable-background:new 0 0 330 100;" xml:space="preserve">
<style type="text/css">
	.st0{display:none;fill:#681F7A;}
	.st1{clip-path:url(#SVGID_2_);fill:#FFFFFF;}
	.st2{clip-path:url(#SVGID_4_);fill:#FFFFFF;}
	.st3{clip-path:url(#SVGID_6_);enable-background:new    ;}
	.st4{clip-path:url(#SVGID_8_);}
	.st5{clip-path:url(#SVGID_10_);}
	.st6{clip-path:url(#SVGID_12_);fill:#FFFFFF;}
	.st7{clip-path:url(#SVGID_14_);fill:#FFFFFF;}
	.st8{clip-path:url(#SVGID_16_);fill:#FFFFFF;}
	.st9{clip-path:url(#SVGID_18_);fill:#FFFFFF;}
	.st10{clip-path:url(#SVGID_20_);fill:#FFFFFF;}
	.st11{clip-path:url(#SVGID_22_);fill:#FFFFFF;}
	.st12{clip-path:url(#SVGID_24_);fill:#FFFFFF;}
	.st13{clip-path:url(#SVGID_26_);fill:#FFFFFF;}
	.st14{clip-path:url(#SVGID_28_);fill:#FFFFFF;}
	.st15{clip-path:url(#SVGID_30_);fill:#FFFFFF;}
</style>
<path class="st0" d="M126.7,46.5c-0.5,2.8-1,6.8-2.9,10.2c-1,0.5-2.3-1.4-4.4,0.9c2.7,8.3-11.8,14.8-12.9,1.4
	C102.7,47.9,126.4,21.2,126.7,46.5z M82.3,47.6c-0.7,2.3-0.9,5.3-2.9,8.3c-2.3,1.2-6.6,0.2-3.6,6.8c-16,13.4-20.7-8.5-7.4-22.6
	C72.6,36.8,84.9,32.2,82.3,47.6z M153.5,40.2c0.9,0.9,5.9-30.1,15-28c2.7,6-6.6,23.7-15,29.5C153.5,41.3,153.1,41.4,153.5,40.2z
	 M181.6,40.2c0.9,0.9,5.9-30.1,15-28c2.7,6-6.6,23.7-15,29.5C181.5,41.3,181.2,41.4,181.6,40.2z M208.4,48.7
	c10.8-28.8,31.7,2.1,0.4,1.1l-0.5-0.5L208.4,48.7z M325.2,49.4l-1.1-0.3c-3.6,4.3-6.6,13.9-15.4,12.3c0-9.1-5.2-17.2-7.6-26.9
	c-1.4-2,4.6-5.6-1.2-7.5c-17.5,2.3-16,31-32.8,39.8c-8.7-0.6,14.9-33.2-3.4-35.9c-6.5-0.5-12.3,4.8-16.8,10.5l-0.1-0.1
	c0-2,2.1-4.9,1.7-8.4c-10.7-7.6-7.2,12-15.5,23.6c-4.1,9.4-28.1,18-25.5-2l0.5-0.4c48.6,6.7,14.6-53.8-7.9-4.1
	c-5.5,12.8-26.9,30.8-20.1-1.4c10.9-7.9,24.4-19.5,23.8-35.7C191.9-15,172.7,36.6,172,49.8c-5.3,11.6-26,31.7-20.6-0.5
	c9.3-8.1,29.4-22.5,22.8-40.2c-10.6-13.8-23,12.1-26.2,23.6c-3.9,10-2.4,28.2-17.8,28.7l-0.1-0.7c18.3-33.5-22.2-44-32.4-6.4
	c-2.5,4.1-5.8,7.9-11.9,7.1L85.6,61c9.1-13.5,5.5-42.9-18.9-24.7l-0.2-0.1c0.2-0.7,0.6-1.6,0.5-3.2c-1.1-1.6-4.6-2.8-7.2-0.7
	C55.9,49.8,36.2,95.5,35,39.9C47.1,22.9,62.3,7.6,51.8,1c-3.1,8.1-8.9,18.5-16.9,30c4.1-61.6-49.3-7.2-19.5-5.5
	C10.5,18.4,20.5,0.9,24,8.4c2.4,8.4,0.9,29,2.1,34.3C19.2,54.2,4.2,62.1,2.5,76.3c6-4.6,13.3-13,24.1-25.9
	c0.2,16.9,11.5,32,24.6,13.8c-2.1,10.7-6.6,22.5-6.3,34.1c1.1,0.3,4.2,1.7,6.8-0.3c2.3-9.3,3.2-19.6,6.4-29.8l0.5-0.1
	c6.7,6.7,17.4,3.8,24.6-3.1c4.7,1.3,10.7-0.1,15-5.4c0.4,13.9,16.8,16.6,29.1,5.5c5.4,1.4,11.8-0.7,15.7-6.5
	c-1.5,16.2,17.7,19.3,28.1-0.3c-1.8,16.2,17.4,19.9,27.9,0.2c0.6,15.8,24,18.9,34.1,3.7c-2.6,3-1.5,15.1,6.5,6.6
	c2.7-11.1,5.4-30.9,21.2-31.7c5,2.6-5,20.6-3.7,29.9c14.4,20.3,26.8-23.7,37-32.9c0.9,7,5,13.6,6.6,21.6c-1.2,1.5-5.3,2.4-1.4,6.9
	c0.7,4.2-11.4,7.5-10.6-5.4l-0.6-0.6c-8.5-1.1-4.9,17.9,8.7,15.3c3.8-0.3,7.3-3.1,10.5-6.4c8.4,1.1,17.1-6,18.8-15.2L325.2,49.4z"/>
<g>
	<g>
		<g>
			<defs>
				<path id="SVGID_1_" d="M26.1,31.9c4.9-1.2,9.8,1.8,11,6.6c1.2,4.9-1.8,9.8-6.6,11c-4.9,1.2-9.8-1.8-11-6.6
					C18.3,38,21.2,33.1,26.1,31.9"/>
			</defs>
			<use xlink:href="#SVGID_1_"  style="overflow:visible;fill:#FFFFFF;"/>
			<clipPath id="SVGID_2_">
				<use xlink:href="#SVGID_1_"  style="overflow:visible;"/>
			</clipPath>
			<rect x="17.3" y="29.8" class="st1" width="21.9" height="21.9"/>
		</g>
	</g>
	<g>
		<g>
			<defs>
				<path id="SVGID_3_" d="M43.1,49.4c4.9-1.2,9.8,1.8,11,6.6c1.2,4.9-1.8,9.8-6.6,11c-4.9,1.2-9.8-1.8-11-6.6
					C35.3,55.5,38.2,50.6,43.1,49.4"/>
			</defs>
			<use xlink:href="#SVGID_3_"  style="overflow:visible;fill:#FFFFFF;"/>
			<clipPath id="SVGID_4_">
				<use xlink:href="#SVGID_3_"  style="overflow:visible;"/>
			</clipPath>
			<rect x="34.3" y="47.2" class="st2" width="21.9" height="21.9"/>
		</g>
	</g>
	<g>
		<g>
			<defs>
				<rect id="SVGID_5_" x="39.6" y="13.4" width="11.4" height="11.4"/>
			</defs>
			<use xlink:href="#SVGID_5_"  style="overflow:visible;fill:#FFFFFF;"/>
			<clipPath id="SVGID_6_">
				<use xlink:href="#SVGID_5_"  style="overflow:visible;"/>
			</clipPath>
			<g class="st3">
				<g>
					<g>
						<defs>
							<rect id="SVGID_7_" x="38.7" y="12.5" width="12.9" height="13.8"/>
						</defs>
						<use xlink:href="#SVGID_7_"  style="overflow:visible;fill:#FFFFFF;"/>
						<clipPath id="SVGID_8_">
							<use xlink:href="#SVGID_7_"  style="overflow:visible;"/>
						</clipPath>
						<g class="st4">
							<g>
								<defs>
									<path id="SVGID_9_" d="M43.9,13.6c3-0.8,6.1,1.1,6.9,4.2c0.8,3-1.1,6.1-4.1,6.9s-6.1-1.1-6.9-4.2S40.9,14.3,43.9,13.6"/>
								</defs>
								<use xlink:href="#SVGID_9_"  style="overflow:visible;fill:#FFFFFF;"/>
								<clipPath id="SVGID_10_">
									<use xlink:href="#SVGID_9_"  style="overflow:visible;"/>
								</clipPath>
								<g class="st5">
									<g>
										<defs>
											<rect id="SVGID_11_" x="38.7" y="13.4" width="12.9" height="12"/>
										</defs>
										<use xlink:href="#SVGID_11_"  style="overflow:visible;fill:#FFFFFF;"/>
										<clipPath id="SVGID_12_">
											<use xlink:href="#SVGID_11_"  style="overflow:visible;"/>
										</clipPath>
										<rect x="38.1" y="12.5" class="st6" width="14.4" height="13.8"/>
									</g>
								</g>
							</g>
						</g>
					</g>
				</g>
			</g>
		</g>
	</g>
	<g>
		<g>
			<defs>
				<path id="SVGID_13_" d="M6.2,35.2c3-0.8,6.1,1.1,6.9,4.2c0.7,3-1.1,6.1-4.2,6.9c-3,0.8-6.1-1.1-6.9-4.2C1.3,39,3.2,36,6.2,35.2"
					/>
			</defs>
			<use xlink:href="#SVGID_13_"  style="overflow:visible;fill:#FFFFFF;"/>
			<clipPath id="SVGID_14_">
				<use xlink:href="#SVGID_13_"  style="overflow:visible;"/>
			</clipPath>
			<rect x="1" y="33.5" class="st7" width="13.8" height="14.4"/>
		</g>
	</g>
	<g>
		<g>
			<defs>
				<polygon id="SVGID_15_" points="108.6,23.1 95.2,44.7 108.6,66.3 98.8,66.3 89.9,52.1 81.6,66.3 71.8,66.3 85.3,44.7 71.8,23.1 
					81.6,23.1 90.5,37.3 98.9,23.1 				"/>
			</defs>
			<use xlink:href="#SVGID_15_"  style="overflow:visible;fill:#FFFFFF;"/>
			<clipPath id="SVGID_16_">
				<use xlink:href="#SVGID_15_"  style="overflow:visible;"/>
			</clipPath>
			<rect x="70.9" y="22.2" class="st8" width="38.7" height="45"/>
		</g>
	</g>
	<g>
		<g>
			<defs>
				<path id="SVGID_17_" d="M123.2,37.3c2.4-3.9,6-5.8,10.7-5.8s8.6,1.6,11.6,4.9c3.1,3.3,4.6,7.5,4.6,12.7s-1.5,9.4-4.6,12.7
					c-3,3.3-6.9,4.9-11.5,4.9s-8.2-2.1-10.8-6.2v22.1h-8.7V32h8.7V37.3 M138.6,56.5c1.8-1.8,2.7-4.3,2.7-7.4s-0.9-5.6-2.7-7.4
					c-1.8-1.8-3.9-2.7-6.3-2.7c-2.4,0-4.5,0.9-6.3,2.7s-2.7,4.3-2.7,7.4c0,3.1,0.9,5.6,2.7,7.4c1.8,1.8,3.9,2.7,6.3,2.7
					C134.7,59.2,136.8,58.3,138.6,56.5"/>
			</defs>
			<use xlink:href="#SVGID_17_"  style="overflow:visible;fill:#FFFFFF;"/>
			<clipPath id="SVGID_18_">
				<use xlink:href="#SVGID_17_"  style="overflow:visible;"/>
			</clipPath>
			<rect x="113.6" y="30.6" class="st9" width="37.4" height="52.9"/>
		</g>
	</g>
	<g>
		<g>
			<defs>
				<path id="SVGID_19_" d="M157.8,61.9c-3.3-3.3-5-7.5-5-12.8s1.7-9.5,5.1-12.7c3.4-3.2,7.6-4.8,12.6-4.8s9.2,1.6,12.6,4.8
					c3.4,3.2,5.1,7.5,5.1,12.7s-1.7,9.5-5.1,12.8c-3.4,3.3-7.6,4.9-12.6,4.9C165.3,66.8,161.1,65.1,157.8,61.9 M170.3,59.4
					c2.4,0,4.5-0.9,6.3-2.7s2.6-4.3,2.6-7.6s-0.9-5.8-2.6-7.6c-1.7-1.8-3.8-2.7-6.3-2.7s-4.5,0.9-6.2,2.7s-2.5,4.3-2.5,7.6
					s0.8,5.8,2.5,7.6S167.9,59.4,170.3,59.4"/>
			</defs>
			<use xlink:href="#SVGID_19_"  style="overflow:visible;fill:#FFFFFF;"/>
			<clipPath id="SVGID_20_">
				<use xlink:href="#SVGID_19_"  style="overflow:visible;"/>
			</clipPath>
			<rect x="151.8" y="30.6" class="st10" width="37.1" height="37.1"/>
		</g>
	</g>
	<g>
		<g>
			<defs>
				<rect id="SVGID_21_" x="193.1" y="20.5" width="8.7" height="45.7"/>
			</defs>
			<use xlink:href="#SVGID_21_"  style="overflow:visible;fill:#FFFFFF;"/>
			<clipPath id="SVGID_22_">
				<use xlink:href="#SVGID_21_"  style="overflow:visible;"/>
			</clipPath>
			<rect x="192.2" y="19.6" class="st11" width="10.6" height="47.6"/>
		</g>
	</g>
	<g>
		<g>
			<defs>
				<rect id="SVGID_23_" x="209.3" y="20.5" width="8.7" height="45.7"/>
			</defs>
			<use xlink:href="#SVGID_23_"  style="overflow:visible;fill:#FFFFFF;"/>
			<clipPath id="SVGID_24_">
				<use xlink:href="#SVGID_23_"  style="overflow:visible;"/>
			</clipPath>
			<rect x="208.3" y="19.6" class="st12" width="10.6" height="47.6"/>
		</g>
	</g>
	<g>
		<g>
			<defs>
				<path id="SVGID_25_" d="M239.9,66.8c-5,0-9-1.6-12.2-4.9c-3.1-3.2-4.7-7.5-4.7-12.8s1.6-9.6,4.7-12.8c3.2-3.2,7.2-4.8,12.2-4.8
					s9.1,1.6,12.3,4.7c3.2,3.1,4.8,7.3,4.8,12.5c0,1.2-0.1,2.3-0.2,3.3h-25c0.2,2.2,1,4,2.5,5.4c1.4,1.4,3.3,2,5.5,2
					c3,0,5.2-1.2,6.7-3.7h9.4c-1,3.3-2.9,5.9-5.7,8C247.3,65.7,243.9,66.8,239.9,66.8 M245.6,40.9c-1.5-1.4-3.4-2-5.6-2
					c-2.2,0-4,0.7-5.5,2c-1.5,1.4-2.3,3.2-2.6,5.4h16.2C248,44.1,247.1,42.3,245.6,40.9"/>
			</defs>
			<use xlink:href="#SVGID_25_"  style="overflow:visible;fill:#FFFFFF;"/>
			<clipPath id="SVGID_26_">
				<use xlink:href="#SVGID_25_"  style="overflow:visible;"/>
			</clipPath>
			<rect x="222.1" y="30.6" class="st13" width="36" height="37.1"/>
		</g>
	</g>
	<g>
		<g>
			<defs>
				<path id="SVGID_27_" d="M270.8,32v5.1c2.2-3.7,5.7-5.6,10.6-5.6c3.9,0,7.1,1.3,9.6,3.9s3.7,6.2,3.7,10.7v20.2H286V47.4
					c0-2.7-0.7-4.7-2-6.1c-1.4-1.4-3.2-2.1-5.6-2.1c-2.3,0-4.2,0.7-5.6,2.1c-1.4,1.4-2.1,3.5-2.1,6.1v18.9H262V32H270.8"/>
			</defs>
			<use xlink:href="#SVGID_27_"  style="overflow:visible;fill:#FFFFFF;"/>
			<clipPath id="SVGID_28_">
				<use xlink:href="#SVGID_27_"  style="overflow:visible;"/>
			</clipPath>
			<rect x="261.2" y="30.6" class="st14" width="34.5" height="36.6"/>
		</g>
	</g>
	<g>
		<g>
			<defs>
				<path id="SVGID_29_" d="M300,42c0-3,1.3-5.5,3.8-7.5s5.9-3,10-3c4.2,0,7.5,1,10,3s3.9,4.7,4,8.1h-8.9c-0.2-2.9-2-4.3-5.3-4.3
					c-1.6,0-2.9,0.3-3.8,1s-1.4,1.6-1.4,2.7c0,1.2,0.7,2.1,2,2.7c1.4,0.7,3,1.2,4.9,1.5c1.9,0.4,3.9,0.8,5.8,1.4
					c1.9,0.6,3.6,1.5,4.9,3c1.4,1.4,2,3.3,2,5.7c0,3.1-1.3,5.6-3.9,7.5s-6,2.9-10,2.9c-4.1,0-7.4-1-10-2.9s-4-4.7-4.3-8.3h8.9
					c0.3,2.9,2.2,4.3,5.5,4.3c1.6,0,2.9-0.4,3.9-1.1c1-0.7,1.5-1.7,1.5-2.8c0-1.2-0.7-2.1-2-2.8c-1.4-0.7-3-1.2-4.9-1.6
					c-1.9-0.4-3.9-0.8-5.8-1.4c-1.9-0.5-3.6-1.5-4.9-2.9C300.6,46.1,300,44.3,300,42"/>
			</defs>
			<use xlink:href="#SVGID_29_"  style="overflow:visible;fill:#FFFFFF;"/>
			<clipPath id="SVGID_30_">
				<use xlink:href="#SVGID_29_"  style="overflow:visible;"/>
			</clipPath>
			<rect x="299" y="30.6" class="st15" width="30" height="37.1"/>
		</g>
	</g>
</g>
</svg>
