<svg version="1.1" id="Layer_1" xmlns="http://www.w3.org/2000/svg" x="0" y="0" viewBox="0 0 330 100" xml:space="preserve"><path fill="#ffffff"  d="M43.9 13.6c3-.8 6.1 1.1 6.9 4.2.8 3-1.1 6.1-4.1 6.9s-6.1-1.1-6.9-4.2 1.1-6.2 4.1-6.9m-.8 35.8c4.9-1.2 9.8 1.8 11 6.6 1.2 4.9-1.8 9.8-6.6 11-4.9 1.2-9.8-1.8-11-6.6-1.2-4.9 1.7-9.8 6.6-11m-17-17.5c4.9-1.2 9.8 1.8 11 6.6 1.2 4.9-1.8 9.8-6.6 11-4.9 1.2-9.8-1.8-11-6.6-1.2-4.9 1.7-9.8 6.6-11M6.2 35.2c3-.8 6.1 1.1 6.9 4.2.7 3-1.1 6.1-4.2 6.9-3 .8-6.1-1.1-6.9-4.2-.7-3.1 1.2-6.1 4.2-6.9m102.4-12.1L95.2 44.7l13.4 21.6h-9.8l-8.9-14.2-8.3 14.2h-9.8l13.5-21.6-13.5-21.6h9.8l8.9 14.2 8.4-14.2h9.7zm14.6 14.2c2.4-3.9 6-5.8 10.7-5.8s8.6 1.6 11.6 4.9c3.1 3.3 4.6 7.5 4.6 12.7s-1.5 9.4-4.6 12.7c-3 3.3-6.9 4.9-11.5 4.9s-8.2-2.1-10.8-6.2v22.1h-8.7V32h8.7v5.3m15.4 19.2c1.8-1.8 2.7-4.3 2.7-7.4s-.9-5.6-2.7-7.4c-1.8-1.8-3.9-2.7-6.3-2.7s-4.5.9-6.3 2.7-2.7 4.3-2.7 7.4c0 3.1.9 5.6 2.7 7.4 1.8 1.8 3.9 2.7 6.3 2.7s4.5-.9 6.3-2.7m19.2 5.4c-3.3-3.3-5-7.5-5-12.8s1.7-9.5 5.1-12.7c3.4-3.2 7.6-4.8 12.6-4.8s9.2 1.6 12.6 4.8c3.4 3.2 5.1 7.5 5.1 12.7s-1.7 9.5-5.1 12.8c-3.4 3.3-7.6 4.9-12.6 4.9-5.2 0-9.4-1.7-12.7-4.9m12.5-2.5c2.4 0 4.5-.9 6.3-2.7s2.6-4.3 2.6-7.6-.9-5.8-2.6-7.6c-1.7-1.8-3.8-2.7-6.3-2.7s-4.5.9-6.2 2.7-2.5 4.3-2.5 7.6.8 5.8 2.5 7.6 3.8 2.7 6.2 2.7m22.8-38.9h8.7v45.7h-8.7V20.5zm16.2 0h8.7v45.7h-8.7V20.5zm30.6 46.3c-5 0-9-1.6-12.2-4.9-3.1-3.2-4.7-7.5-4.7-12.8s1.6-9.6 4.7-12.8c3.2-3.2 7.2-4.8 12.2-4.8s9.1 1.6 12.3 4.7c3.2 3.1 4.8 7.3 4.8 12.5 0 1.2-.1 2.3-.2 3.3h-25c.2 2.2 1 4 2.5 5.4 1.4 1.4 3.3 2 5.5 2 3 0 5.2-1.2 6.7-3.7h9.4c-1 3.3-2.9 5.9-5.7 8-2.9 2-6.3 3.1-10.3 3.1m5.7-25.9c-1.5-1.4-3.4-2-5.6-2-2.2 0-4 .7-5.5 2-1.5 1.4-2.3 3.2-2.6 5.4h16.2c-.1-2.2-1-4-2.5-5.4m25.2-8.9v5.1c2.2-3.7 5.7-5.6 10.6-5.6 3.9 0 7.1 1.3 9.6 3.9s3.7 6.2 3.7 10.7v20.2H286V47.4c0-2.7-.7-4.7-2-6.1-1.4-1.4-3.2-2.1-5.6-2.1-2.3 0-4.2.7-5.6 2.1-1.4 1.4-2.1 3.5-2.1 6.1v18.9H262V32h8.8M300 42c0-3 1.3-5.5 3.8-7.5s5.9-3 10-3c4.2 0 7.5 1 10 3s3.9 4.7 4 8.1h-8.9c-.2-2.9-2-4.3-5.3-4.3-1.6 0-2.9.3-3.8 1s-1.4 1.6-1.4 2.7c0 1.2.7 2.1 2 2.7 1.4.7 3 1.2 4.9 1.5 1.9.4 3.9.8 5.8 1.4 1.9.6 3.6 1.5 4.9 3 1.4 1.4 2 3.3 2 5.7 0 3.1-1.3 5.6-3.9 7.5s-6 2.9-10 2.9c-4.1 0-7.4-1-10-2.9s-4-4.7-4.3-8.3h8.9c.3 2.9 2.2 4.3 5.5 4.3 1.6 0 2.9-.4 3.9-1.1 1-.7 1.5-1.7 1.5-2.8 0-1.2-.7-2.1-2-2.8-1.4-.7-3-1.2-4.9-1.6-1.9-.4-3.9-.8-5.8-1.4-1.9-.5-3.6-1.5-4.9-2.9-1.4-1.1-2-2.9-2-5.2"/></svg>