<?xml version="1.0" encoding="utf-8"?>
<!-- Generator: Adobe Illustrator 24.0.1, SVG Export Plug-In . SVG Version: 6.00 Build 0)  -->
<svg version="1.1" id="Layer_1" xmlns="http://www.w3.org/2000/svg" xmlns:xlink="http://www.w3.org/1999/xlink" x="0px" y="0px"
	 viewBox="0 0 23.8 23.8" style="enable-background:new 0 0 23.8 23.8;" xml:space="preserve">
<title>icons</title>
<g>
	<path d="M11.9,23.8C5.3,23.8,0,18.4,0,11.9S5.3,0,11.9,0s11.9,5.3,11.9,11.9S18.4,23.8,11.9,23.8z M11.9,1.8
		C6.3,1.8,1.8,6.3,1.8,11.9S6.3,22,11.9,22S22,17.5,22,11.9S17.5,1.8,11.9,1.8z"/>
</g>
<g>
	<path d="M14.3,15.7c-0.2,0-0.4-0.1-0.6-0.3l-4.9-5c-0.3-0.3-0.3-0.9,0-1.2s0.9-0.3,1.2,0l5,4.9c0.3,0.3,0.3,0.9,0,1.2
		C14.8,15.6,14.6,15.7,14.3,15.7z"/>
</g>
<g>
	<path d="M9.4,15.7c-0.2,0-0.4-0.1-0.6-0.3c-0.3-0.3-0.3-0.9,0-1.2l4.9-4.9c0.3-0.3,0.9-0.3,1.2,0c0.3,0.3,0.3,0.9,0,1.2l-5,5
		C9.8,15.6,9.6,15.7,9.4,15.7z"/>
</g>
</svg>
