<svg height="24" viewBox="0 0 24 24" width="24" xmlns="http://www.w3.org/2000/svg" xmlns:xlink="http://www.w3.org/1999/xlink"><filter id="a" color-interpolation-filters="auto"><feColorMatrix in="SourceGraphic" type="matrix" values="0 0 0 0 1.000000 0 0 0 0 0.800000 0 0 0 0 0.000000 0 0 0 1.000000 0"/></filter><g fill="none" fill-rule="evenodd"><path d="m0 0h24v24h-24z" fill-rule="nonzero" opacity="0" transform="matrix(0 1 -1 0 24 0)"/><g filter="url(#a)" stroke-linecap="round" stroke-linejoin="round"><g stroke="#000" stroke-width="1.43" transform="translate(3 3)"><path d="m12.4230769 9.5c0 1.6135385-1.3095384 2.9230769-2.9230769 2.9230769-1.61353846 0-2.92307692-1.3095384-2.92307692-2.9230769 0-1.61353846 1.30953846-2.92307692 2.92307692-2.92307692 1.6135385 0 2.9230769 1.30953846 2.9230769 2.92307692z" fill="#d8d8d8"/><path d="m0 9.5h2.923077"/><path d="m2.781746 16.216792 2.066616-2.065153"/><path d="m9.5 19v-2.923077"/><path d="m16.216792 16.216792-2.066615-2.066615"/><path d="m19 9.5h-2.923077"/><path d="m16.216792 2.783208-2.066615 2.066615"/><path d="m9.5 0v2.923077"/><path d="m2.781746 2.783208 2.066616 2.066615"/></g></g></g></svg>